#!OML:ASF I:\golf\golf\golf 2\Subject 1\2002-09-07\Subject1.ASF
:FULLY-SPECIFIED
:DEGREES
199
root -7.3216 17.6249 2.96845 5.06742 39.4056 -9.35627
lowerback 4.91938 -10.3995 -18.4296
upperback -0.902307 -14.7894 -3.98996
thorax -0.244768 -7.12897 5.89477
lowerneck -4.11251 22.7825 0.653204
upperneck 8.86681 32.2494 -13.6029
head 5.73682 15.0107 -1.72461
rclavicle -8.70677e-014 9.54166e-015
rhumerus 28.4722 -25.8155 -55.6925
rradius 107.006
rwrist 7.32427
rhand -64.5976 45.311
rfingers 7.12502
rthumb -36.5168 19.1232
lclavicle -8.70677e-014 9.54166e-015
lhumerus 113.409 -40.3428 44.0351
lradius 38.5484
lwrist -1.13679
lhand -31.3147 -4.88117
lfingers 7.12502
lthumb -184.587 -154.951
rfemur -34.4523 18.072 24.6056
rtibia 36.3407
rfoot -5.55179 24.9409
rtoes 31.4574
lfemur -2.75871 18.4646 1.83372
ltibia 27.6889
lfoot -10.3126 18.8103
ltoes -22.0036
200
root -7.32362 17.6235 2.94286 4.92419 39.8523 -9.53976
lowerback 5.14913 -10.409 -18.39
upperback -0.831745 -14.8437 -3.8788
thorax -0.261382 -7.16103 6.02347
lowerneck -4.26258 22.7937 0.357512
upperneck 8.92479 32.27 -13.4463
head 5.70952 15.0113 -1.6459
rclavicle 2.85256e-014 8.26944e-014
rhumerus 28.6501 -25.721 -56.1475
rradius 106.77
rwrist 6.65405
rhand -64.3589 46.4671
rfingers 7.12502
rthumb -36.2909 20.2226
lclavicle 2.85256e-014 8.26944e-014
lhumerus 113.159 -40.3532 44.1363
lradius 38.2691
lwrist -1.25599
lhand -30.7868 -4.59941
lfingers 7.12502
lthumb -184.077 -154.659
rfemur -34.4981 17.7718 24.6914
rtibia 36.3212
rfoot -5.84208 24.7203
rtoes 30.6051
lfemur -3.02866 18.6624 1.92798
ltibia 27.6804
lfoot -9.92385 18.7403
ltoes -23.5814
201
root -7.32417 17.6083 2.91198 4.86716 40.363 -9.60865
lowerback 5.36808 -10.4358 -18.4712
upperback -0.742319 -14.9204 -3.74599
thorax -0.211392 -7.20913 6.2216
lowerneck -4.44571 22.8187 0.0486308
upperneck 8.99016 32.3235 -13.3509
head 5.70084 15.0209 -1.57217
rclavicle -2.82771e-014 3.18055e-014
rhumerus 28.8643 -25.6132 -56.5496
rradius 106.492
rwrist 5.53095
rhand -64.0308 47.0883
rfingers 7.12502
rthumb -35.9801 20.7669
lclavicle -2.82771e-014 3.18055e-014
lhumerus 112.92 -40.3343 44.3235
lradius 37.9526
lwrist -1.45602
lhand -30.1945 -4.26467
lfingers 7.12502
lthumb -183.505 -154.314
rfemur -34.6054 17.5056 24.6271
rtibia 36.3096
rfoot -6.10391 24.3661
rtoes 29.6637
lfemur -3.37447 18.637 1.89415
ltibia 27.6783
lfoot -9.9642 18.6515
ltoes -23.7807
202
root -7.32588 17.6277 2.88482 4.81654 40.9244 -9.76358
lowerback 5.51048 -10.4355 -18.4319
upperback -0.637868 -14.9358 -3.66803
thorax -0.159869 -7.22871 6.29693
lowerneck -4.57342 22.7884 0.0924987
upperneck 9.14844 32.3176 -13.353
head 5.77793 15.0001 -1.54988
rclavicle -1.98288e-014 -3.49861e-014
rhumerus 28.8118 -25.493 -56.8514
rradius 106.223
rwrist 4.32995
rhand -64.0094 47.3444
rfingers 7.12502
rthumb -35.9598 21.018
lclavicle -1.98288e-014 -3.49861e-014
lhumerus 112.814 -40.4407 44.3163
lradius 37.675
lwrist -1.63655
lhand -29.549 -3.75263
lfingers 7.12502
lthumb -182.882 -153.792
rfemur -34.6889 17.4514 24.5495
rtibia 36.2006
rfoot -6.29374 23.7364
rtoes 29.1619
lfemur -3.83362 18.9249 1.88396
ltibia 27.7767
lfoot -9.79284 18.5043
ltoes -24.4852
203
root -7.32928 17.6345 2.85287 4.67107 41.5329 -10.1281
lowerback 5.64065 -10.3869 -18.1722
upperback -0.579955 -14.8813 -3.62173
thorax -0.23001 -7.20384 6.25098
lowerneck -4.46308 22.6728 0.441113
upperneck 9.32373 32.187 -13.4381
head 5.87378 14.9342 -1.60837
rclavicle 4.07757e-014 -3.18055e-015
rhumerus 28.3972 -25.399 -57.024
rradius 105.968
rwrist 3.30345
rhand -63.8849 47.9522
rfingers 7.12502
rthumb -35.8419 21.597
lclavicle 4.07757e-014 -3.18055e-015
lhumerus 112.735 -40.8056 44.1416
lradius 37.433
lwrist -2.12489
lhand -29.2 -3.00985
lfingers 7.12502
lthumb -182.545 -153.045
rfemur -34.8481 17.4177 24.597
rtibia 36.0619
rfoot -6.40645 23.1158
rtoes 28.3696
lfemur -4.41116 19.0179 2.05328
ltibia 27.9297
lfoot -9.93304 18.2551
ltoes -24.0227
204
root -7.33153 17.6412 2.82135 4.61044 42.147 -10.3769
lowerback 5.74828 -10.3536 -18.0561
upperback -0.560761 -14.8533 -3.54487
thorax -0.281489 -7.1899 6.29872
lowerneck -4.22356 22.6035 0.647151
upperneck 9.36594 32.0869 -13.4755
head 5.87937 14.9011 -1.6684
rclavicle 2.42688e-014 -3.18055e-015
rhumerus 27.9943 -25.1667 -57.1991
rradius 105.705
rwrist 2.28753
rhand -63.8999 49.7724
rfingers 7.12502
rthumb -35.8561 23.4207
lclavicle 2.42688e-014 -3.18055e-015
lhumerus 112.531 -41.1314 44.0359
lradius 37.0845
lwrist -2.92703
lhand -29.1414 -2.34618
lfingers 7.12502
lthumb -182.488 -152.381
rfemur -34.9481 17.1828 24.5988
rtibia 35.7946
rfoot -6.38928 22.697
rtoes 27.4202
lfemur -5.12341 19.3478 2.11311
ltibia 28.2823
lfoot -9.81346 17.9208
ltoes -24.2108
205
root -7.33238 17.6566 2.79136 4.58939 42.7915 -10.469
lowerback 5.91384 -10.4042 -18.0957
upperback -0.495235 -14.9495 -3.41875
thorax -0.234882 -7.24648 6.46181
lowerneck -4.25264 22.6444 0.51638
upperneck 9.45045 32.1502 -13.3744
head 5.8789 14.9275 -1.62051
rclavicle 2.03804e-013 3.81667e-014
rhumerus 27.9939 -24.6934 -57.6485
rradius 105.368
rwrist 1.42402
rhand -64.1603 50.8218
rfingers 7.12502
rthumb -36.1027 24.5306
lclavicle 2.03804e-013 3.81667e-014
lhumerus 112.05 -41.1972 44.1887
lradius 36.6576
lwrist -3.54185
lhand -28.8408 -1.97389
lfingers 7.12502
lthumb -182.198 -152.005
rfemur -34.96 16.8908 24.497
rtibia 35.5534
rfoot -6.32518 22.2388
rtoes 27.1881
lfemur -5.73689 19.8485 2.02637
ltibia 28.5772
lfoot -9.88796 17.4198
ltoes -23.2822
206
root -7.33463 17.6739 2.75825 4.4101 43.5169 -10.7168
lowerback 6.19347 -10.4498 -18.0036
upperback -0.396513 -15.0538 -3.26062
thorax -0.235303 -7.30804 6.6171
lowerneck -4.57199 22.6396 0.366557
upperneck 9.77986 32.2054 -13.2165
head 5.98922 14.9171 -1.50809
rclavicle -6.50523e-014 3.81667e-014
rhumerus 28.1035 -24.3322 -58.2093
rradius 104.956
rwrist 0.910335
rhand -64.0673 48.9595
rfingers 7.12502
rthumb -36.0147 22.6466
lclavicle -6.50523e-014 3.81667e-014
lhumerus 111.479 -41.364 44.5967
lradius 36.3125
lwrist -3.46419
lhand -27.7856 -1.82646
lfingers 7.12502
lthumb -181.179 -151.85
rfemur -34.9173 16.587 24.5131
rtibia 35.3146
rfoot -6.47032 21.7111
rtoes 26.2247
lfemur -6.3132 20.3022 2.06911
ltibia 28.8353
lfoot -9.83646 16.9217
ltoes -23.1046
207
root -7.33659 17.6883 2.7214 4.3668 44.2542 -10.7898
lowerback 6.42778 -10.4097 -18.0205
upperback -0.29748 -15.04 -3.19201
thorax -0.236462 -7.30769 6.73269
lowerneck -4.62892 22.5554 0.37758
upperneck 9.88255 32.0986 -13.133
head 6.01071 14.8634 -1.48824
rclavicle -3.02153e-014 2.54444e-014
rhumerus 27.9734 -24.2339 -58.7373
rradius 104.542
rwrist 0.521374
rhand -63.8869 46.5547
rfingers 7.12502
rthumb -35.8438 20.2
lclavicle -3.02153e-014 2.54444e-014
lhumerus 111.021 -41.8247 45.0354
lradius 36.0783
lwrist -3.00577
lhand -26.3291 -1.64246
lfingers 7.12502
lthumb -179.772 -151.663
rfemur -34.9154 16.1402 24.4018
rtibia 35.1013
rfoot -6.69029 21.3153
rtoes 24.783
lfemur -6.9167 20.652 1.95607
ltibia 29.0341
lfoot -9.72821 16.4837
ltoes -23.2791
208
root -7.33857 17.6986 2.68406 4.41843 44.9549 -10.7684
lowerback 6.58725 -10.3685 -18.1176
upperback -0.184391 -15.0101 -3.13985
thorax -0.169756 -7.30444 6.85097
lowerneck -4.58191 22.491 0.32501
upperneck 9.79482 31.9762 -13.0379
head 5.94224 14.823 -1.48811
rclavicle 1.90138e-013 9.85972e-014
rhumerus 27.8599 -24.0931 -59.3317
rradius 104.152
rwrist -0.120985
rhand -63.7988 44.9136
rfingers 7.12502
rthumb -35.7603 18.5386
lclavicle 1.90138e-013 9.85972e-014
lhumerus 110.604 -42.1536 45.2139
lradius 35.8834
lwrist -2.78971
lhand -25.3233 -1.21525
lfingers 7.12502
lthumb -178.801 -151.239
rfemur -34.9737 15.7481 24.1942
rtibia 34.9375
rfoot -6.79584 20.8461
rtoes 24.0299
lfemur -7.49912 20.9196 1.75279
ltibia 29.1404
lfoot -9.764 16.0335
ltoes -22.7655
209
root -7.34224 17.6996 2.64295 4.25854 45.7012 -11.0807
lowerback 6.76644 -10.3623 -18.0053
upperback -0.0517028 -15.0173 -2.9802
thorax -0.10448 -7.3262 6.98013
lowerneck -4.83037 22.4465 0.188377
upperneck 9.92761 31.9347 -12.8897
head 5.97542 14.7879 -1.41077
rclavicle -1.9143e-013 -9.54166e-015
rhumerus 27.8493 -23.8067 -59.9074
rradius 103.775
rwrist -1.01919
rhand -63.6168 44.6054
rfingers 7.12502
rthumb -35.5878 18.1887
lclavicle -1.9143e-013 -9.54166e-015
lhumerus 110.206 -42.2958 45.2583
lradius 35.5838
lwrist -2.66897
lhand -24.539 -0.523188
lfingers 7.12502
lthumb -178.043 -150.552
rfemur -35.1107 15.3206 24.2354
rtibia 34.8356
rfoot -6.82444 20.3864
rtoes 23.6868
lfemur -8.03184 20.983 1.80673
ltibia 29.1829
lfoot -10.0404 15.4915
ltoes -21.9783
210
root -7.34643 17.7 2.59813 4.10999 46.5266 -11.362
lowerback 7.0058 -10.4038 -17.9434
upperback 0.0814626 -15.1034 -2.74077
thorax -0.0180297 -7.39051 7.21933
lowerneck -5.24878 22.4268 -0.117034
upperneck 10.1356 31.9699 -12.7926
head 6.04932 14.7651 -1.30016
rclavicle -8.38871e-014 -1.59028e-014
rhumerus 27.96 -23.3179 -60.47
rradius 103.328
rwrist -1.84079
rhand -63.5754 44.8271
rfingers 7.12502
rthumb -35.5486 18.401
lclavicle -8.38871e-014 -1.59028e-014
lhumerus 109.646 -42.3767 45.6182
lradius 35.0218
lwrist -2.58334
lhand -23.7899 -0.189394
lfingers 7.12502
lthumb -177.32 -150.226
rfemur -35.2749 14.8036 24.2357
rtibia 34.7803
rfoot -6.90954 20.021
rtoes 22.9737
lfemur -8.61427 21.0504 1.81476
ltibia 29.2201
lfoot -10.2157 14.944
ltoes -21.7469
211
root -7.3512 17.7035 2.55344 4.07427 47.37 -11.5292
lowerback 7.24958 -10.5136 -17.9457
upperback 0.185365 -15.2885 -2.43456
thorax 0.094302 -7.50589 7.55214
lowerneck -5.79559 22.458 -0.795255
upperneck 10.2597 32.0777 -12.618
head 6.05329 14.7716 -1.12961
rclavicle 1.09332e-014 -1.27222e-014
rhumerus 28.2339 -22.5946 -61.1202
rradius 102.809
rwrist -2.59213
rhand -63.7405 44.0514
rfingers 7.12502
rthumb -35.7051 17.6629
lclavicle 1.09332e-014 -1.27222e-014
lhumerus 108.822 -42.2976 46.2058
lradius 34.4565
lwrist -2.69056
lhand -23.3122 -0.0950235
lfingers 7.12502
lthumb -176.858 -150.138
rfemur -35.4873 14.3872 24.097
rtibia 34.7422
rfoot -7.08929 19.5054
rtoes 21.8783
lfemur -9.32347 21.602 1.64953
ltibia 29.2784
lfoot -9.81011 14.3998
ltoes -23.427
